<svg width="554.808" height="291.168" viewBox="0 0 146.792 77.039" xmlns="http://www.w3.org/2000/svg"><defs><clipPath clipPathUnits="userSpaceOnUse" id="a"><path d="m9.83 41.48 9.15-10.17.083 1.076c.414 6.063 3.225 8.516 7.635 8.516 2.48 0 4.575-.469 7.055-1.544l-1.488-4.795c-1.709.772-3.142 1.102-4.768 1.102-1.874 0-3.114-1.295-3.335-4.354l-.358-5.126 12.457-12.017-4.024-4.134-8.82 10.225-.082-1.157c-.413-6.064-3.28-8.516-7.634-8.516-1.902 0-3.83.413-6.477 1.35l1.406 4.795c1.488-.661 2.784-.91 4.272-.91 1.791 0 3.114 1.296 3.335 4.356l.358 5.236L6.083 37.346z" style="fill:#fff;stroke-width:.26458" aria-label="x"/></clipPath><path id="b" d="M161.515 27.971h371.576v245.9H161.515z"/></defs><path style="fill:#fff;stroke-width:.793758;stroke-linejoin:bevel" d="M-23.821-10.536H160.29v112.613H-23.821z"/><circle style="fill:#000;fill-opacity:1;stroke-width:.185143;stroke-linejoin:bevel" cx="46.589" cy="38.123" r="20.66"/><circle style="fill:#fff;stroke-width:.185143;stroke-linejoin:bevel" cx="20.756" cy="20.611" r="20.66" clip-path="url(#a)" transform="translate(25.833 17.512)"/><path d="M181.496 140c9.14 0 16.465-5.157 21.094-14.356h2.402c-1.699 12.598 7.852 13.711 16.406 13.711h5.743l2.343-13.418h-2.46c-8.086 0-8.38-2.285-7.208-8.848l6.622-37.91c3.574-20.508-2.872-29.531-18.926-29.531-3.574 0-7.149.644-10.664 1.523l1.933 14.766c2.696-.879 4.922-1.23 7.324-1.23 4.57 0 6.387 3.164 5.098 10.37l-.293 1.524c-27.656 4.336-47.226 21.445-47.226 45.938 0 11.074 6.445 17.46 17.812 17.46zm25.137-39.258c-3.223 15.41-10.254 24.199-19.57 24.199-4.864 0-7.149-2.285-7.149-7.207 0-12.832 11.953-22.969 28.36-26.192zm54.609 39.198c21.738 0 34.57-15.35 34.57-41.366 0-14.532-8.613-23.086-23.203-23.086-21.738 0-34.57 15.586-34.57 41.953 0 14.121 8.613 22.5 23.203 22.5zm2.813-15.058c-6.094 0-9.668-3.925-9.668-10.547 0-14.941 5.86-23.789 15.703-23.789 5.918 0 9.375 3.926 9.375 10.547 0 14.942-5.742 23.79-15.41 23.79zm73.769 0c-8.672 0-13.71-4.57-13.77-12.539.06-13.125 7.618-21.797 19.22-21.797 6.738 0 11.25 1.993 15.058 6.563l10.84-10.488c-5.332-7.793-12.598-11.133-24.258-11.133-22.383 0-37.09 15.586-37.09 39.316 0 15.938 10.313 25.137 28.301 25.137 9.844 0 19.629-3.223 27.012-8.145l-5.977-12.89c-5.273 3.574-12.305 5.976-19.336 5.976z" style="font-style:italic;font-weight:700;font-size:120px;line-height:1.25;font-family:'Cascadia Code';-inkscape-font-specification:'Cascadia Code Bold Italic';letter-spacing:0;word-spacing:0;white-space:pre;shape-inside:url(#b)" aria-label="doc" transform="translate(25.568 13.965) scale(.26459)"/><path style="fill:#fff;stroke-width:.793758;stroke-linejoin:bevel" d="M-1.637-15.524h5.521v6.172h-5.521z"/></svg>